<?xml version="1.0" standalone="no"?>
<!DOCTYPE svg PUBLIC "-//W3C//DTD SVG 20010904//EN"
 "http://www.w3.org/TR/2001/REC-SVG-20010904/DTD/svg10.dtd">
<svg version="1.0" xmlns="http://www.w3.org/2000/svg"
 width="32.000000pt" height="32.000000pt" viewBox="0 0 32.000000 32.000000"
 preserveAspectRatio="xMidYMid meet">

<g transform="translate(0.000000,32.000000) scale(0.100000,-0.100000)"
fill="#000000" stroke="none">
<path d="M29 291 c-28 -29 -29 -32 -29 -131 0 -99 1 -102 29 -131 29 -28 32
-29 131 -29 99 0 102 1 131 29 28 29 29 32 29 131 0 99 -1 102 -29 131 -29 28
-32 29 -131 29 -99 0 -102 -1 -131 -29z m251 -11 c17 -17 20 -33 20 -120 0
-87 -3 -103 -20 -120 -17 -17 -33 -20 -120 -20 -136 0 -140 4 -140 140 0 136
4 140 140 140 87 0 103 -3 120 -20z"/>
<path d="M233 269 c-16 -16 -5 -39 19 -39 14 0 19 6 16 22 -4 25 -19 33 -35
17z"/>
<path d="M124 236 c-66 -29 -62 -131 5 -154 103 -36 165 112 65 154 -39 16
-32 16 -70 0z m81 -31 c14 -13 25 -33 25 -45 0 -27 -43 -70 -70 -70 -12 0 -32
11 -45 25 -14 13 -25 34 -25 45 0 27 43 70 70 70 12 0 32 -11 45 -25z"/>
</g>
</svg>
