<?xml version="1.0" standalone="no"?>
<!DOCTYPE svg PUBLIC "-//W3C//DTD SVG 20010904//EN"
 "http://www.w3.org/TR/2001/REC-SVG-20010904/DTD/svg10.dtd">
<svg version="1.0" xmlns="http://www.w3.org/2000/svg"
 width="32.000000pt" height="32.000000pt" viewBox="0 0 32.000000 32.000000"
 preserveAspectRatio="xMidYMid meet">

<g transform="translate(0.000000,32.000000) scale(0.100000,-0.100000)"
fill="#000000" stroke="none">
<path d="M92 227 c-50 -51 -92 -97 -92 -103 0 -13 112 -124 125 -124 13 0 195
182 195 195 0 13 -112 125 -125 125 -6 0 -52 -42 -103 -93z m168 18 l44 -45
-52 0 -52 0 0 45 c0 25 4 45 8 45 4 0 28 -20 52 -45z m-80 -35 l0 -70 -72 0
-72 0 69 70 c38 39 71 70 72 70 2 0 3 -31 3 -70z m100 -33 c0 -1 -31 -34 -70
-72 l-70 -69 0 41 c0 38 2 42 28 45 21 2 28 9 30 31 3 24 7 27 43 27 21 0 39
-1 39 -3z m-160 -109 l0 -52 -45 44 c-25 24 -45 48 -45 52 0 4 20 8 45 8 l45
0 0 -52z"/>
<path d="M0 290 c0 -6 27 -10 61 -10 37 0 58 4 54 10 -8 13 -115 13 -115 0z"/>
<path d="M0 250 c0 -5 18 -10 40 -10 22 0 40 5 40 10 0 6 -18 10 -40 10 -22 0
-40 -4 -40 -10z"/>
<path d="M13 213 c9 -2 25 -2 35 0 9 3 1 5 -18 5 -19 0 -27 -2 -17 -5z"/>
<path d="M0 20 c0 -13 47 -13 55 0 4 6 -7 10 -24 10 -17 0 -31 -4 -31 -10z"/>
</g>
</svg>
